<svg xmlns="http://www.w3.org/2000/svg" xmlns:xlink="http://www.w3.org/1999/xlink" width="120" zoomAndPan="magnify" viewBox="0 0 90 44.999999" height="60" preserveAspectRatio="xMidYMid meet" version="1.0"><defs><g/><clipPath id="b60f38efb7"><path d="M 8.144531 13.566406 L 23.195312 13.566406 L 23.195312 23.902344 L 8.144531 23.902344 Z M 8.144531 13.566406 " clip-rule="nonzero"/></clipPath><clipPath id="2dc86688e6"><path d="M 20.992188 15.773438 C 21.277344 16.0625 21.539062 16.371094 21.777344 16.699219 C 21.964844 16.953125 22.132812 17.222656 22.28125 17.496094 C 23.335938 19.433594 23.484375 21.835938 22.675781 23.890625 L 17.515625 23.890625 C 19.238281 22.609375 19.597656 20.117188 17.761719 18.539062 C 17.71875 18.503906 17.671875 18.472656 17.628906 18.4375 C 17.585938 18.40625 17.539062 18.375 17.492188 18.34375 C 16.953125 17.980469 16.3125 17.796875 15.671875 17.796875 C 15.03125 17.796875 14.390625 17.980469 13.851562 18.34375 C 13.804688 18.375 13.761719 18.40625 13.714844 18.4375 C 13.671875 18.472656 13.625 18.503906 13.582031 18.539062 C 12.722656 19.199219 12.34375 20.21875 12.386719 21.222656 L 8.152344 21.222656 C 8.132812 19.617188 8.613281 18 9.566406 16.699219 C 9.804688 16.371094 10.066406 16.0625 10.351562 15.773438 L 10.355469 15.773438 C 13.152344 12.84375 18.191406 12.84375 20.992188 15.773438 Z M 20.992188 15.773438 " clip-rule="nonzero"/></clipPath><clipPath id="d277b2267c"><path d="M 20.992188 15.773438 C 21.277344 16.0625 21.539062 16.371094 21.777344 16.699219 C 21.964844 16.953125 22.132812 17.222656 22.28125 17.496094 C 23.335938 19.433594 23.484375 21.835938 22.675781 23.890625 L 17.515625 23.890625 C 19.238281 22.609375 19.597656 20.117188 17.761719 18.539062 C 17.71875 18.503906 17.671875 18.472656 17.628906 18.4375 C 17.585938 18.40625 17.539062 18.375 17.492188 18.34375 C 16.953125 17.980469 16.3125 17.796875 15.671875 17.796875 C 15.03125 17.796875 14.390625 17.980469 13.851562 18.34375 C 13.804688 18.375 13.761719 18.40625 13.714844 18.4375 C 13.671875 18.472656 13.625 18.503906 13.582031 18.539062 C 12.722656 19.199219 12.34375 20.21875 12.386719 21.222656 L 8.152344 21.222656 C 8.132812 19.617188 8.613281 18 9.566406 16.699219 C 9.804688 16.371094 10.066406 16.0625 10.351562 15.773438 L 10.355469 15.773438 C 13.152344 12.84375 18.191406 12.84375 20.992188 15.773438 " clip-rule="nonzero"/></clipPath><clipPath id="2aed45994a"><path d="M 28.914062 17.511719 L 14.625 5.222656 L 2.703125 19.21875 L 16.996094 31.507812 Z M 28.914062 17.511719 " clip-rule="nonzero"/></clipPath><linearGradient x1="-0.112252" gradientTransform="matrix(-6.440343, 7.561313, -7.524969, -6.471448, 21.685424, 13.7388)" y1="0" x2="1.663883" gradientUnits="userSpaceOnUse" y2="0" id="d12906dfe9"><stop stop-opacity="1" stop-color="rgb(0%, 77.598572%, 100%)" offset="0"/><stop stop-opacity="1" stop-color="rgb(0%, 77.598572%, 100%)" offset="0.0625"/><stop stop-opacity="1" stop-color="rgb(0%, 77.449036%, 100%)" offset="0.0703125"/><stop stop-opacity="1" stop-color="rgb(0%, 76.982117%, 100%)" offset="0.0742188"/><stop stop-opacity="1" stop-color="rgb(0%, 76.664734%, 100%)" offset="0.078125"/><stop stop-opacity="1" stop-color="rgb(0%, 76.489258%, 100%)" offset="0.0859375"/><stop stop-opacity="1" stop-color="rgb(0%, 76.139832%, 100%)" offset="0.09375"/><stop stop-opacity="1" stop-color="rgb(0%, 75.631714%, 100%)" offset="0.0976562"/><stop stop-opacity="1" stop-color="rgb(0%, 75.299072%, 100%)" offset="0.101563"/><stop stop-opacity="1" stop-color="rgb(0%, 75.099182%, 100%)" offset="0.105469"/><stop stop-opacity="1" stop-color="rgb(0%, 74.899292%, 100%)" offset="0.109375"/><stop stop-opacity="1" stop-color="rgb(0%, 74.656677%, 100%)" offset="0.113281"/><stop stop-opacity="1" stop-color="rgb(0%, 74.415588%, 100%)" offset="0.117188"/><stop stop-opacity="1" stop-color="rgb(0%, 74.240112%, 100%)" offset="0.125"/><stop stop-opacity="1" stop-color="rgb(0%, 73.883057%, 100%)" offset="0.132812"/><stop stop-opacity="1" stop-color="rgb(0%, 73.33374%, 100%)" offset="0.136719"/><stop stop-opacity="1" stop-color="rgb(0%, 72.967529%, 100%)" offset="0.140625"/><stop stop-opacity="1" stop-color="rgb(0%, 72.792053%, 100%)" offset="0.148438"/><stop stop-opacity="1" stop-color="rgb(0%, 72.442627%, 100%)" offset="0.15625"/><stop stop-opacity="1" stop-color="rgb(0%, 72.033691%, 100%)" offset="0.160156"/><stop stop-opacity="1" stop-color="rgb(0%, 71.798706%, 100%)" offset="0.164062"/><stop stop-opacity="1" stop-color="rgb(0%, 71.482849%, 100%)" offset="0.167969"/><stop stop-opacity="1" stop-color="rgb(0%, 71.168518%, 100%)" offset="0.171875"/><stop stop-opacity="1" stop-color="rgb(0%, 70.993042%, 100%)" offset="0.179687"/><stop stop-opacity="1" stop-color="rgb(0%, 70.643616%, 100%)" offset="0.1875"/><stop stop-opacity="1" stop-color="rgb(0%, 70.133972%, 100%)" offset="0.191406"/><stop stop-opacity="1" stop-color="rgb(0%, 69.799805%, 100%)" offset="0.195313"/><stop stop-opacity="1" stop-color="rgb(0%, 69.598389%, 100%)" offset="0.199219"/><stop stop-opacity="1" stop-color="rgb(0%, 69.398499%, 100%)" offset="0.203125"/><stop stop-opacity="1" stop-color="rgb(0%, 69.158936%, 100%)" offset="0.207031"/><stop stop-opacity="1" stop-color="rgb(0%, 68.920898%, 100%)" offset="0.210938"/><stop stop-opacity="1" stop-color="rgb(0%, 68.745422%, 100%)" offset="0.21875"/><stop stop-opacity="1" stop-color="rgb(0%, 68.385315%, 100%)" offset="0.226562"/><stop stop-opacity="1" stop-color="rgb(0%, 67.875671%, 100%)" offset="0.230469"/><stop stop-opacity="1" stop-color="rgb(0%, 67.553711%, 100%)" offset="0.234375"/><stop stop-opacity="1" stop-color="rgb(0%, 67.341614%, 100%)" offset="0.238281"/><stop stop-opacity="1" stop-color="rgb(0%, 67.129517%, 100%)" offset="0.242188"/><stop stop-opacity="1" stop-color="rgb(0%, 66.950989%, 100%)" offset="0.25"/><stop stop-opacity="1" stop-color="rgb(0%, 66.53595%, 100%)" offset="0.253906"/><stop stop-opacity="1" stop-color="rgb(0%, 66.299438%, 100%)" offset="0.257812"/><stop stop-opacity="1" stop-color="rgb(0%, 66.099548%, 100%)" offset="0.261719"/><stop stop-opacity="1" stop-color="rgb(0%, 65.899658%, 100%)" offset="0.265625"/><stop stop-opacity="1" stop-color="rgb(0%, 65.611267%, 100%)" offset="0.269531"/><stop stop-opacity="1" stop-color="rgb(0%, 65.322876%, 100%)" offset="0.273438"/><stop stop-opacity="1" stop-color="rgb(0%, 65.1474%, 100%)" offset="0.28125"/><stop stop-opacity="1" stop-color="rgb(0%, 64.63623%, 100%)" offset="0.285156"/><stop stop-opacity="1" stop-color="rgb(0%, 64.299011%, 100%)" offset="0.289062"/><stop stop-opacity="1" stop-color="rgb(0%, 64.099121%, 100%)" offset="0.292969"/><stop stop-opacity="1" stop-color="rgb(0%, 63.899231%, 100%)" offset="0.296875"/><stop stop-opacity="1" stop-color="rgb(0%, 63.661194%, 100%)" offset="0.300781"/><stop stop-opacity="1" stop-color="rgb(0%, 63.424683%, 100%)" offset="0.304688"/><stop stop-opacity="1" stop-color="rgb(0%, 63.249207%, 100%)" offset="0.3125"/><stop stop-opacity="1" stop-color="rgb(0%, 62.887573%, 100%)" offset="0.320312"/><stop stop-opacity="1" stop-color="rgb(0%, 62.348938%, 100%)" offset="0.324219"/><stop stop-opacity="1" stop-color="rgb(0%, 61.999512%, 100%)" offset="0.328125"/><stop stop-opacity="1" stop-color="rgb(0%, 61.811829%, 100%)" offset="0.335938"/><stop stop-opacity="1" stop-color="rgb(0%, 61.450195%, 100%)" offset="0.34375"/><stop stop-opacity="1" stop-color="rgb(0%, 61.036682%, 100%)" offset="0.347656"/><stop stop-opacity="1" stop-color="rgb(0%, 60.798645%, 100%)" offset="0.351562"/><stop stop-opacity="1" stop-color="rgb(0%, 60.598755%, 100%)" offset="0.355469"/><stop stop-opacity="1" stop-color="rgb(0%, 60.398865%, 100%)" offset="0.359375"/><stop stop-opacity="1" stop-color="rgb(0%, 60.112%, 100%)" offset="0.363281"/><stop stop-opacity="1" stop-color="rgb(0%, 59.82666%, 100%)" offset="0.367187"/><stop stop-opacity="1" stop-color="rgb(0%, 59.602356%, 100%)" offset="0.371094"/><stop stop-opacity="1" stop-color="rgb(0%, 59.378052%, 100%)" offset="0.375"/><stop stop-opacity="1" stop-color="rgb(0%, 59.202576%, 100%)" offset="0.382812"/><stop stop-opacity="1" stop-color="rgb(0%, 58.714294%, 100%)" offset="0.386719"/><stop stop-opacity="1" stop-color="rgb(0%, 58.399963%, 100%)" offset="0.390625"/><stop stop-opacity="1" stop-color="rgb(0%, 58.163452%, 100%)" offset="0.394531"/><stop stop-opacity="1" stop-color="rgb(0%, 57.928467%, 100%)" offset="0.398438"/><stop stop-opacity="1" stop-color="rgb(0%, 57.756042%, 100%)" offset="0.40625"/><stop stop-opacity="1" stop-color="rgb(0%, 57.441711%, 100%)" offset="0.414063"/><stop stop-opacity="1" stop-color="rgb(0%, 56.898499%, 100%)" offset="0.417969"/><stop stop-opacity="1" stop-color="rgb(0%, 56.498718%, 100%)" offset="0.421875"/><stop stop-opacity="1" stop-color="rgb(0%, 56.314087%, 100%)" offset="0.429688"/><stop stop-opacity="1" stop-color="rgb(0%, 55.953979%, 100%)" offset="0.4375"/><stop stop-opacity="1" stop-color="rgb(0%, 55.53894%, 100%)" offset="0.441406"/><stop stop-opacity="1" stop-color="rgb(0%, 55.299377%, 100%)" offset="0.445313"/><stop stop-opacity="1" stop-color="rgb(0%, 55.099487%, 100%)" offset="0.449219"/><stop stop-opacity="1" stop-color="rgb(0%, 54.899597%, 100%)" offset="0.453125"/><stop stop-opacity="1" stop-color="rgb(0%, 54.56543%, 100%)" offset="0.457031"/><stop stop-opacity="1" stop-color="rgb(0%, 54.231262%, 100%)" offset="0.460938"/><stop stop-opacity="1" stop-color="rgb(0%, 54.055786%, 100%)" offset="0.46875"/><stop stop-opacity="1" stop-color="rgb(0%, 53.70636%, 100%)" offset="0.476562"/><stop stop-opacity="1" stop-color="rgb(0%, 53.215027%, 100%)" offset="0.480469"/><stop stop-opacity="1" stop-color="rgb(0%, 52.89917%, 100%)" offset="0.484375"/><stop stop-opacity="1" stop-color="rgb(0%, 52.67334%, 100%)" offset="0.488281"/><stop stop-opacity="1" stop-color="rgb(0%, 52.449036%, 100%)" offset="0.492187"/><stop stop-opacity="1" stop-color="rgb(0%, 52.313232%, 100%)" offset="0.5"/><stop stop-opacity="1" stop-color="rgb(0%, 51.954651%, 100%)" offset="0.503906"/><stop stop-opacity="1" stop-color="rgb(0%, 51.733398%, 100%)" offset="0.507812"/><stop stop-opacity="1" stop-color="rgb(0%, 51.365662%, 100%)" offset="0.511719"/><stop stop-opacity="1" stop-color="rgb(0%, 50.999451%, 100%)" offset="0.515625"/><stop stop-opacity="1" stop-color="rgb(0%, 50.816345%, 100%)" offset="0.523438"/><stop stop-opacity="1" stop-color="rgb(0%, 50.45929%, 100%)" offset="0.53125"/><stop stop-opacity="1" stop-color="rgb(0%, 50.041199%, 100%)" offset="0.535156"/><stop stop-opacity="1" stop-color="rgb(0%, 49.798584%, 100%)" offset="0.539062"/><stop stop-opacity="1" stop-color="rgb(0%, 49.598694%, 100%)" offset="0.542969"/><stop stop-opacity="1" stop-color="rgb(0%, 49.398804%, 100%)" offset="0.546875"/><stop stop-opacity="1" stop-color="rgb(0%, 49.066162%, 100%)" offset="0.550781"/><stop stop-opacity="1" stop-color="rgb(0%, 48.735046%, 100%)" offset="0.554688"/><stop stop-opacity="1" stop-color="rgb(0%, 48.55957%, 100%)" offset="0.5625"/><stop stop-opacity="1" stop-color="rgb(0%, 48.210144%, 100%)" offset="0.570312"/><stop stop-opacity="1" stop-color="rgb(0%, 47.767639%, 100%)" offset="0.574219"/><stop stop-opacity="1" stop-color="rgb(0%, 47.499084%, 100%)" offset="0.578125"/><stop stop-opacity="1" stop-color="rgb(0%, 47.299194%, 100%)" offset="0.582031"/><stop stop-opacity="1" stop-color="rgb(0%, 47.099304%, 100%)" offset="0.585938"/><stop stop-opacity="1" stop-color="rgb(0%, 46.842957%, 100%)" offset="0.589844"/><stop stop-opacity="1" stop-color="rgb(0%, 46.588135%, 100%)" offset="0.59375"/><stop stop-opacity="1" stop-color="rgb(0%, 46.412659%, 100%)" offset="0.601562"/><stop stop-opacity="1" stop-color="rgb(0%, 45.86792%, 100%)" offset="0.605469"/><stop stop-opacity="1" stop-color="rgb(0%, 45.498657%, 100%)" offset="0.609375"/><stop stop-opacity="1" stop-color="rgb(0%, 45.318604%, 100%)" offset="0.617188"/><stop stop-opacity="1" stop-color="rgb(0%, 44.963074%, 100%)" offset="0.625"/><stop stop-opacity="1" stop-color="rgb(0%, 44.743347%, 100%)" offset="0.75"/><stop stop-opacity="1" stop-color="rgb(0%, 44.699097%, 100%)" offset="1"/></linearGradient><clipPath id="f4b1b8cf60"><path d="M 1.578125 18.542969 L 16.632812 18.542969 L 16.632812 28.878906 L 1.578125 28.878906 Z M 1.578125 18.542969 " clip-rule="nonzero"/></clipPath><clipPath id="e407b93bdb"><path d="M 3.785156 26.671875 C 3.5 26.382812 3.238281 26.074219 3 25.746094 C 2.8125 25.492188 2.644531 25.222656 2.492188 24.949219 C 1.441406 23.011719 1.292969 20.609375 2.097656 18.554688 L 7.261719 18.554688 C 5.539062 19.835938 5.175781 22.328125 7.015625 23.90625 C 7.058594 23.941406 7.101562 23.976562 7.144531 24.007812 L 7.148438 24.007812 C 7.191406 24.042969 7.234375 24.070312 7.28125 24.101562 C 7.824219 24.464844 8.464844 24.648438 9.101562 24.648438 C 9.742188 24.648438 10.382812 24.464844 10.925781 24.101562 C 10.96875 24.070312 11.015625 24.042969 11.058594 24.007812 L 11.0625 24.007812 C 11.105469 23.976562 11.148438 23.941406 11.191406 23.90625 C 12.054688 23.246094 12.429688 22.226562 12.386719 21.222656 L 16.621094 21.222656 C 16.640625 22.832031 16.164062 24.445312 15.207031 25.746094 C 14.96875 26.074219 14.707031 26.382812 14.421875 26.671875 C 11.621094 29.601562 6.585938 29.601562 3.785156 26.671875 Z M 3.785156 26.671875 " clip-rule="nonzero"/></clipPath><clipPath id="88946e3f1e"><path d="M 3.785156 26.671875 C 3.5 26.382812 3.238281 26.074219 3 25.746094 C 2.8125 25.492188 2.644531 25.222656 2.492188 24.949219 C 1.441406 23.011719 1.292969 20.609375 2.097656 18.554688 L 7.261719 18.554688 C 5.539062 19.835938 5.175781 22.328125 7.015625 23.90625 C 7.058594 23.941406 7.101562 23.976562 7.144531 24.007812 L 7.148438 24.007812 C 7.191406 24.042969 7.234375 24.070312 7.28125 24.101562 C 7.824219 24.464844 8.464844 24.648438 9.101562 24.648438 C 9.742188 24.648438 10.382812 24.464844 10.925781 24.101562 C 10.96875 24.070312 11.015625 24.042969 11.058594 24.007812 L 11.0625 24.007812 C 11.105469 23.976562 11.148438 23.941406 11.191406 23.90625 C 12.054688 23.246094 12.429688 22.226562 12.386719 21.222656 L 16.621094 21.222656 C 16.640625 22.832031 16.164062 24.445312 15.207031 25.746094 C 14.96875 26.074219 14.707031 26.382812 14.421875 26.671875 C 11.621094 29.601562 6.585938 29.601562 3.785156 26.671875 " clip-rule="nonzero"/></clipPath><clipPath id="ad41bc21c4"><path d="M -2.1875 19.800781 L 3.023438 34.480469 L 20.117188 28.359375 L 14.910156 13.675781 Z M -2.1875 19.800781 " clip-rule="nonzero"/></clipPath><linearGradient x1="-0.0870015" gradientTransform="matrix(13.694142, -4.904686, 4.881112, 13.760281, 1.674905, 25.361047)" y1="0" x2="1.125493" gradientUnits="userSpaceOnUse" y2="0" id="5219314f69"><stop stop-opacity="1" stop-color="rgb(55.699158%, 17.599487%, 88.598633%)" offset="0"/><stop stop-opacity="1" stop-color="rgb(55.699158%, 17.599487%, 88.598633%)" offset="0.0625"/><stop stop-opacity="1" stop-color="rgb(55.699158%, 17.599487%, 88.598633%)" offset="0.078125"/><stop stop-opacity="1" stop-color="rgb(55.635071%, 17.552185%, 88.598633%)" offset="0.0859375"/><stop stop-opacity="1" stop-color="rgb(55.381775%, 17.401123%, 88.598633%)" offset="0.09375"/><stop stop-opacity="1" stop-color="rgb(55.003357%, 17.256165%, 88.598633%)" offset="0.101562"/><stop stop-opacity="1" stop-color="rgb(54.656982%, 17.056274%, 88.598633%)" offset="0.109375"/><stop stop-opacity="1" stop-color="rgb(54.473877%, 16.873169%, 88.598633%)" offset="0.117188"/><stop stop-opacity="1" stop-color="rgb(54.23584%, 16.673279%, 88.598633%)" offset="0.121094"/><stop stop-opacity="1" stop-color="rgb(54.025269%, 16.499329%, 88.598633%)" offset="0.125"/><stop stop-opacity="1" stop-color="rgb(53.845215%, 16.482544%, 88.598633%)" offset="0.140625"/><stop stop-opacity="1" stop-color="rgb(53.475952%, 16.282654%, 88.598633%)" offset="0.148438"/><stop stop-opacity="1" stop-color="rgb(53.096008%, 16.099548%, 88.598633%)" offset="0.15625"/><stop stop-opacity="1" stop-color="rgb(52.902222%, 15.913391%, 88.598633%)" offset="0.164063"/><stop stop-opacity="1" stop-color="rgb(52.697754%, 15.711975%, 88.598633%)" offset="0.167969"/><stop stop-opacity="1" stop-color="rgb(52.497864%, 15.698242%, 88.598633%)" offset="0.171875"/><stop stop-opacity="1" stop-color="rgb(52.355957%, 15.507507%, 88.598633%)" offset="0.179688"/><stop stop-opacity="1" stop-color="rgb(52.206421%, 15.309143%, 88.598633%)" offset="0.1875"/><stop stop-opacity="1" stop-color="rgb(52.027893%, 15.129089%, 88.598633%)" offset="0.195313"/><stop stop-opacity="1" stop-color="rgb(51.669312%, 14.929199%, 88.598633%)" offset="0.203125"/><stop stop-opacity="1" stop-color="rgb(51.438904%, 14.898682%, 88.598633%)" offset="0.210938"/><stop stop-opacity="1" stop-color="rgb(51.234436%, 14.733887%, 88.598633%)" offset="0.21875"/><stop stop-opacity="1" stop-color="rgb(50.880432%, 14.533997%, 88.598633%)" offset="0.226563"/><stop stop-opacity="1" stop-color="rgb(50.645447%, 14.355469%, 88.598633%)" offset="0.234375"/><stop stop-opacity="1" stop-color="rgb(50.465393%, 14.155579%, 88.598633%)" offset="0.242188"/><stop stop-opacity="1" stop-color="rgb(50.125122%, 13.957214%, 88.598633%)" offset="0.246094"/><stop stop-opacity="1" stop-color="rgb(49.917603%, 13.816833%, 88.598633%)" offset="0.25"/><stop stop-opacity="1" stop-color="rgb(49.729919%, 13.62915%, 88.598633%)" offset="0.265625"/><stop stop-opacity="1" stop-color="rgb(49.353027%, 13.371277%, 88.598633%)" offset="0.273437"/><stop stop-opacity="1" stop-color="rgb(49.081421%, 13.299561%, 88.491821%)" offset="0.28125"/><stop stop-opacity="1" stop-color="rgb(48.901367%, 13.201904%, 88.291931%)" offset="0.289063"/><stop stop-opacity="1" stop-color="rgb(48.602295%, 13.002014%, 88.198853%)" offset="0.292969"/><stop stop-opacity="1" stop-color="rgb(48.400879%, 12.89978%, 88.198853%)" offset="0.296875"/><stop stop-opacity="1" stop-color="rgb(48.300171%, 12.797546%, 88.198853%)" offset="0.304688"/><stop stop-opacity="1" stop-color="rgb(48.10791%, 12.597656%, 88.198853%)" offset="0.3125"/><stop stop-opacity="1" stop-color="rgb(47.846985%, 12.438965%, 88.198853%)" offset="0.320312"/><stop stop-opacity="1" stop-color="rgb(47.587585%, 12.287903%, 88.198853%)" offset="0.328125"/><stop stop-opacity="1" stop-color="rgb(47.428894%, 12.199402%, 88.198853%)" offset="0.335938"/><stop stop-opacity="1" stop-color="rgb(47.154236%, 12.123108%, 88.198853%)" offset="0.339844"/><stop stop-opacity="1" stop-color="rgb(46.948242%, 12.04834%, 88.198853%)" offset="0.34375"/><stop stop-opacity="1" stop-color="rgb(46.768188%, 11.868286%, 88.198853%)" offset="0.359375"/><stop stop-opacity="1" stop-color="rgb(46.398926%, 11.5448%, 88.198853%)" offset="0.367187"/><stop stop-opacity="1" stop-color="rgb(46.054077%, 11.360168%, 88.198853%)" offset="0.375"/><stop stop-opacity="1" stop-color="rgb(45.849609%, 11.158752%, 88.198853%)" offset="0.382813"/><stop stop-opacity="1" stop-color="rgb(45.610046%, 10.958862%, 88.198853%)" offset="0.390625"/><stop stop-opacity="1" stop-color="rgb(45.240784%, 10.758972%, 88.198853%)" offset="0.40625"/><stop stop-opacity="1" stop-color="rgb(44.880676%, 10.591125%, 88.198853%)" offset="0.414062"/><stop stop-opacity="1" stop-color="rgb(44.699097%, 10.392761%, 88.198853%)" offset="0.421875"/><stop stop-opacity="1" stop-color="rgb(44.485474%, 10.188293%, 88.198853%)" offset="0.425781"/><stop stop-opacity="1" stop-color="rgb(44.273376%, 10.174561%, 88.198853%)" offset="0.429688"/><stop stop-opacity="1" stop-color="rgb(44.085693%, 9.986877%, 88.198853%)" offset="0.4375"/><stop stop-opacity="1" stop-color="rgb(43.716431%, 9.617615%, 88.198853%)" offset="0.453125"/><stop stop-opacity="1" stop-color="rgb(43.345642%, 9.417725%, 88.198853%)" offset="0.460937"/><stop stop-opacity="1" stop-color="rgb(43.127441%, 9.399414%, 88.198853%)" offset="0.46875"/><stop stop-opacity="1" stop-color="rgb(42.922974%, 9.222412%, 88.198853%)" offset="0.476563"/><stop stop-opacity="1" stop-color="rgb(42.597961%, 9.022522%, 88.198853%)" offset="0.484375"/><stop stop-opacity="1" stop-color="rgb(42.424011%, 8.843994%, 88.198853%)" offset="0.492188"/><stop stop-opacity="1" stop-color="rgb(42.253113%, 8.644104%, 88.198853%)" offset="0.5"/><stop stop-opacity="1" stop-color="rgb(41.899109%, 8.444214%, 88.198853%)" offset="0.503906"/><stop stop-opacity="1" stop-color="rgb(41.690063%, 8.2901%, 88.198853%)" offset="0.507812"/><stop stop-opacity="1" stop-color="rgb(41.644287%, 8.244324%, 88.198853%)" offset="0.515625"/><stop stop-opacity="1" stop-color="rgb(41.45813%, 8.058167%, 88.198853%)" offset="0.523438"/><stop stop-opacity="1" stop-color="rgb(41.130066%, 7.858276%, 88.198853%)" offset="0.53125"/><stop stop-opacity="1" stop-color="rgb(40.760803%, 7.71637%, 88.198853%)" offset="0.546875"/><stop stop-opacity="1" stop-color="rgb(40.376282%, 7.566833%, 88.198853%)" offset="0.550781"/><stop stop-opacity="1" stop-color="rgb(40.17334%, 7.499695%, 88.198853%)" offset="0.554688"/><stop stop-opacity="1" stop-color="rgb(40.086365%, 7.385254%, 88.198853%)" offset="0.5625"/><stop stop-opacity="1" stop-color="rgb(39.89563%, 7.185364%, 88.198853%)" offset="0.570312"/><stop stop-opacity="1" stop-color="rgb(39.602661%, 7.006836%, 88.198853%)" offset="0.578125"/><stop stop-opacity="1" stop-color="rgb(39.222717%, 6.723022%, 88.198853%)" offset="0.59375"/><stop stop-opacity="1" stop-color="rgb(38.829041%, 6.416321%, 88.198853%)" offset="0.597656"/><stop stop-opacity="1" stop-color="rgb(38.624573%, 6.298828%, 88.198853%)" offset="0.601562"/><stop stop-opacity="1" stop-color="rgb(38.511658%, 6.298828%, 88.198853%)" offset="0.609375"/><stop stop-opacity="1" stop-color="rgb(38.331604%, 6.231689%, 88.198853%)" offset="0.617188"/><stop stop-opacity="1" stop-color="rgb(38.075256%, 6.031799%, 88.198853%)" offset="0.625"/><stop stop-opacity="1" stop-color="rgb(37.742615%, 5.845642%, 88.198853%)" offset="0.632812"/><stop stop-opacity="1" stop-color="rgb(37.553406%, 5.645752%, 88.198853%)" offset="0.640625"/><stop stop-opacity="1" stop-color="rgb(37.35199%, 5.447388%, 88.198853%)" offset="0.648437"/><stop stop-opacity="1" stop-color="rgb(37.04834%, 5.247498%, 88.198853%)" offset="0.65625"/><stop stop-opacity="1" stop-color="rgb(36.868286%, 5.099487%, 88.198853%)" offset="0.664062"/><stop stop-opacity="1" stop-color="rgb(36.64856%, 5.079651%, 88.198853%)" offset="0.671875"/><stop stop-opacity="1" stop-color="rgb(36.279297%, 4.879761%, 88.198853%)" offset="0.679688"/><stop stop-opacity="1" stop-color="rgb(36.074829%, 4.673767%, 88.174438%)" offset="0.6875"/><stop stop-opacity="1" stop-color="rgb(35.85968%, 4.473877%, 87.974548%)" offset="0.695312"/><stop stop-opacity="1" stop-color="rgb(35.484314%, 4.295349%, 87.799072%)" offset="0.703125"/><stop stop-opacity="1" stop-color="rgb(35.299683%, 4.100037%, 87.799072%)" offset="0.710938"/><stop stop-opacity="1" stop-color="rgb(35.115051%, 3.904724%, 87.799072%)" offset="0.71875"/><stop stop-opacity="1" stop-color="rgb(34.716797%, 3.700256%, 87.799072%)" offset="0.722656"/><stop stop-opacity="1" stop-color="rgb(34.503174%, 3.503418%, 87.799072%)" offset="0.726562"/><stop stop-opacity="1" stop-color="rgb(34.500122%, 3.500366%, 87.799072%)" offset="0.734375"/><stop stop-opacity="1" stop-color="rgb(34.320068%, 3.49884%, 87.799072%)" offset="0.742188"/><stop stop-opacity="1" stop-color="rgb(33.953857%, 3.330994%, 87.799072%)" offset="0.75"/><stop stop-opacity="1" stop-color="rgb(33.731079%, 3.131104%, 87.799072%)" offset="0.757812"/><stop stop-opacity="1" stop-color="rgb(33.531189%, 2.931213%, 87.799072%)" offset="0.765625"/><stop stop-opacity="1" stop-color="rgb(33.169556%, 2.731323%, 87.799072%)" offset="0.773438"/><stop stop-opacity="1" stop-color="rgb(32.937622%, 2.584839%, 87.799072%)" offset="0.78125"/><stop stop-opacity="1" stop-color="rgb(32.757568%, 2.435303%, 87.799072%)" offset="0.789062"/><stop stop-opacity="1" stop-color="rgb(32.458496%, 2.398682%, 87.799072%)" offset="0.796875"/><stop stop-opacity="1" stop-color="rgb(32.250977%, 2.278137%, 87.799072%)" offset="0.804688"/><stop stop-opacity="1" stop-color="rgb(32.072449%, 2.078247%, 87.799072%)" offset="0.8125"/><stop stop-opacity="1" stop-color="rgb(31.747437%, 1.873779%, 87.799072%)" offset="0.816406"/><stop stop-opacity="1" stop-color="rgb(31.549072%, 1.748657%, 87.799072%)" offset="0.820312"/><stop stop-opacity="1" stop-color="rgb(31.474304%, 1.673889%, 87.799072%)" offset="0.828125"/><stop stop-opacity="1" stop-color="rgb(31.29425%, 1.493835%, 87.799072%)" offset="0.835938"/><stop stop-opacity="1" stop-color="rgb(30.999756%, 1.293945%, 87.799072%)" offset="0.84375"/><stop stop-opacity="1" stop-color="rgb(30.705261%, 1.101685%, 87.799072%)" offset="0.851563"/><stop stop-opacity="1" stop-color="rgb(30.499268%, 0.901794%, 87.799072%)" offset="0.859375"/><stop stop-opacity="1" stop-color="rgb(30.210876%, 0.799561%, 87.799072%)" offset="0.867188"/><stop stop-opacity="1" stop-color="rgb(29.910278%, 0.720215%, 87.799072%)" offset="0.875"/><stop stop-opacity="1" stop-color="rgb(29.730225%, 0.520325%, 87.799072%)" offset="0.882812"/><stop stop-opacity="1" stop-color="rgb(29.498291%, 0.367737%, 87.799072%)" offset="0.890625"/><stop stop-opacity="1" stop-color="rgb(29.167175%, 0.167847%, 87.799072%)" offset="0.90625"/><stop stop-opacity="1" stop-color="rgb(28.999329%, 0%, 87.799072%)" offset="0.9375"/><stop stop-opacity="1" stop-color="rgb(28.999329%, 0%, 87.799072%)" offset="1"/></linearGradient></defs><g clip-path="url(#b60f38efb7)"><g clip-path="url(#2dc86688e6)"><g clip-path="url(#d277b2267c)"><g clip-path="url(#2aed45994a)"><path fill="url(#d12906dfe9)" d="M 28.269531 17.929688 L 14.507812 6.09375 L 3.070312 19.527344 L 16.832031 31.363281 Z M 28.269531 17.929688 " fill-rule="nonzero"/></g></g></g></g><g clip-path="url(#f4b1b8cf60)"><g clip-path="url(#e407b93bdb)"><g clip-path="url(#88946e3f1e)"><g clip-path="url(#ad41bc21c4)"><path fill="url(#5219314f69)" d="M -1.667969 19.71875 L 3.277344 33.660156 L 19.878906 27.714844 L 14.933594 13.773438 Z M -1.667969 19.71875 " fill-rule="nonzero"/></g></g></g></g><g fill="#ffffff" fill-opacity="1"><g transform="translate(29.118229, 27.046464)"><g><path d="M 11.203125 -2.8125 C 11.210938 -2.882812 11.210938 -2.929688 11.203125 -2.953125 C 11.203125 -2.960938 11.160156 -2.960938 11.078125 -2.953125 C 11.003906 -2.941406 10.945312 -2.929688 10.90625 -2.921875 C 10.894531 -2.921875 10.910156 -2.898438 10.953125 -2.859375 C 11.003906 -2.828125 11.050781 -2.796875 11.09375 -2.765625 C 11.132812 -2.742188 11.160156 -2.734375 11.171875 -2.734375 C 11.171875 -2.734375 11.179688 -2.757812 11.203125 -2.8125 Z M 11.703125 -7.1875 C 11.703125 -7.226562 11.65625 -7.238281 11.5625 -7.21875 C 11.519531 -7.207031 11.410156 -7.175781 11.234375 -7.125 C 10.941406 -7.03125 10.566406 -6.921875 10.109375 -6.796875 C 9.628906 -6.671875 9.378906 -6.597656 9.359375 -6.578125 C 9.347656 -6.578125 9.375 -6.226562 9.4375 -5.53125 C 9.507812 -4.832031 9.550781 -4.472656 9.5625 -4.453125 C 9.570312 -4.453125 9.878906 -4.507812 10.484375 -4.625 C 11.085938 -4.75 11.394531 -4.816406 11.40625 -4.828125 C 11.414062 -4.847656 11.425781 -4.929688 11.4375 -5.078125 C 11.613281 -6.367188 11.703125 -7.070312 11.703125 -7.1875 Z M 12.171875 -9.21875 C 12.585938 -9.332031 13.097656 -8.890625 13.703125 -7.890625 C 13.785156 -7.734375 13.832031 -7.632812 13.84375 -7.59375 C 13.851562 -7.5625 13.859375 -7.5 13.859375 -7.40625 C 13.835938 -7.257812 13.695312 -6.394531 13.4375 -4.8125 C 13.1875 -3.226562 13.054688 -2.414062 13.046875 -2.375 C 13.023438 -2.3125 12.703125 -2.035156 12.078125 -1.546875 L 12 -1.484375 L 11.515625 -1.90625 C 11.453125 -1.96875 11.363281 -2.046875 11.25 -2.140625 C 11.144531 -2.242188 11.046875 -2.332031 10.953125 -2.40625 C 10.867188 -2.488281 10.8125 -2.550781 10.78125 -2.59375 L 10.53125 -2.8125 L 10.359375 -2.78125 C 10.234375 -2.757812 10.09375 -2.722656 9.9375 -2.671875 L 9.71875 -2.578125 L 9.734375 -2.375 C 9.734375 -2.226562 9.703125 -2.125 9.640625 -2.0625 C 9.597656 -2.019531 9.535156 -1.957031 9.453125 -1.875 L 9.34375 -1.8125 L 8.796875 -2.234375 L 8.25 -2.671875 L 8.234375 -2.8125 C 8.210938 -2.945312 8.203125 -3.21875 8.203125 -3.625 C 8.148438 -5.300781 7.992188 -6.625 7.734375 -7.59375 C 7.648438 -7.832031 7.609375 -7.957031 7.609375 -7.96875 C 7.609375 -7.988281 7.757812 -8.160156 8.0625 -8.484375 C 8.363281 -8.816406 8.519531 -8.984375 8.53125 -8.984375 C 8.539062 -8.984375 8.640625 -8.898438 8.828125 -8.734375 L 9.140625 -8.484375 L 9.15625 -8.28125 C 9.164062 -8.15625 9.179688 -8.09375 9.203125 -8.09375 C 9.222656 -8.09375 9.332031 -8.132812 9.53125 -8.21875 C 9.8125 -8.320312 10.109375 -8.429688 10.421875 -8.546875 C 10.710938 -8.648438 11.082031 -8.789062 11.53125 -8.96875 C 11.882812 -9.125 12.097656 -9.207031 12.171875 -9.21875 Z M 2.796875 -11.59375 C 3.066406 -11.695312 3.207031 -11.75 3.21875 -11.75 C 3.25 -11.75 3.28125 -11.703125 3.3125 -11.609375 C 3.351562 -11.515625 3.445312 -11.222656 3.59375 -10.734375 C 3.707031 -10.398438 3.765625 -10.21875 3.765625 -10.1875 C 3.765625 -10.15625 3.738281 -10.082031 3.6875 -9.96875 L 3.578125 -9.78125 C 3.648438 -9.78125 4.4375 -9.96875 5.9375 -10.34375 C 6.125 -10.382812 6.25 -10.445312 6.3125 -10.53125 C 6.40625 -10.613281 6.457031 -10.65625 6.46875 -10.65625 C 6.488281 -10.65625 6.617188 -10.492188 6.859375 -10.171875 L 7.265625 -9.703125 L 7.21875 -9.59375 C 7.207031 -9.5625 7.128906 -9.378906 6.984375 -9.046875 C 6.867188 -8.722656 6.804688 -8.554688 6.796875 -8.546875 C 6.773438 -8.523438 6.710938 -8.53125 6.609375 -8.5625 C 6.515625 -8.601562 6.414062 -8.625 6.3125 -8.625 C 6.207031 -8.625 6.015625 -8.609375 5.734375 -8.578125 C 5.460938 -8.554688 5.320312 -8.539062 5.3125 -8.53125 C 5.300781 -8.519531 5.257812 -8.21875 5.1875 -7.625 C 5.125 -7.039062 5.097656 -6.742188 5.109375 -6.734375 C 5.117188 -6.734375 5.382812 -6.78125 5.90625 -6.875 C 6.289062 -6.945312 6.523438 -6.992188 6.609375 -7.015625 C 6.703125 -7.035156 6.789062 -7.082031 6.875 -7.15625 L 7.109375 -7.28125 L 7.34375 -7.140625 C 7.5 -7.066406 7.585938 -7.015625 7.609375 -6.984375 C 7.617188 -6.960938 7.660156 -6.628906 7.734375 -5.984375 C 7.816406 -5.335938 7.851562 -5 7.84375 -4.96875 C 7.832031 -4.957031 7.757812 -4.984375 7.625 -5.046875 C 7.507812 -5.085938 7.238281 -5.101562 6.8125 -5.09375 C 6.21875 -5.082031 5.644531 -5.019531 5.09375 -4.90625 L 4.90625 -4.875 L 4.8125 -4.296875 C 4.757812 -3.929688 4.738281 -3.742188 4.75 -3.734375 C 4.78125 -3.710938 4.882812 -3.675781 5.0625 -3.625 C 5.550781 -3.488281 6.03125 -3.304688 6.5 -3.078125 C 6.96875 -2.859375 7.300781 -2.648438 7.5 -2.453125 L 7.640625 -2.3125 L 7.140625 -1.640625 C 6.773438 -1.191406 6.582031 -0.96875 6.5625 -0.96875 C 6.5625 -0.957031 6.34375 -1.03125 5.90625 -1.1875 L 5.265625 -1.375 L 5.265625 -1.484375 C 5.265625 -1.535156 5.269531 -1.5625 5.28125 -1.5625 C 5.300781 -1.570312 5.34375 -1.582031 5.40625 -1.59375 C 5.5 -1.601562 5.554688 -1.617188 5.578125 -1.640625 C 5.597656 -1.671875 5.539062 -1.769531 5.40625 -1.9375 C 5.28125 -2.101562 5.125 -2.285156 4.9375 -2.484375 C 4.707031 -2.710938 4.585938 -2.828125 4.578125 -2.828125 C 4.566406 -2.816406 4.535156 -2.707031 4.484375 -2.5 C 4.410156 -2.15625 4.296875 -1.769531 4.140625 -1.34375 C 3.984375 -0.914062 3.859375 -0.617188 3.765625 -0.453125 C 3.578125 -0.160156 3.3125 0.0820312 2.96875 0.28125 C 2.769531 0.414062 2.660156 0.484375 2.640625 0.484375 C 2.617188 0.484375 2.320312 0.191406 1.75 -0.390625 L 0.859375 -1.265625 L 0.9375 -1.328125 C 1.039062 -1.410156 1.101562 -1.453125 1.125 -1.453125 C 1.15625 -1.460938 1.207031 -1.445312 1.28125 -1.40625 C 1.363281 -1.351562 1.421875 -1.328125 1.453125 -1.328125 C 1.503906 -1.328125 1.609375 -1.382812 1.765625 -1.5 C 1.921875 -1.625 2.039062 -1.738281 2.125 -1.84375 C 2.382812 -2.101562 2.582031 -2.492188 2.71875 -3.015625 C 2.789062 -3.265625 2.859375 -3.5625 2.921875 -3.90625 C 2.984375 -4.257812 3 -4.445312 2.96875 -4.46875 C 2.9375 -4.5 2.535156 -4.394531 1.765625 -4.15625 C 1.585938 -4.101562 1.4375 -4.046875 1.3125 -3.984375 C 1.1875 -3.910156 1.117188 -3.890625 1.109375 -3.921875 C 1.109375 -3.921875 1.09375 -3.960938 1.0625 -4.046875 C 1.039062 -4.140625 1.003906 -4.265625 0.953125 -4.421875 C 0.898438 -4.585938 0.851562 -4.75 0.8125 -4.90625 C 0.675781 -5.425781 0.601562 -5.722656 0.59375 -5.796875 C 0.582031 -5.867188 0.617188 -5.960938 0.703125 -6.078125 C 0.710938 -6.097656 0.722656 -6.113281 0.734375 -6.125 C 0.753906 -6.144531 0.765625 -6.160156 0.765625 -6.171875 C 0.773438 -6.179688 0.78125 -6.1875 0.78125 -6.1875 C 0.78125 -6.1875 0.878906 -6.160156 1.078125 -6.109375 L 1.328125 -6.015625 L 1.875 -6.125 C 1.96875 -6.132812 2.125 -6.160156 2.34375 -6.203125 C 2.5625 -6.242188 2.695312 -6.269531 2.75 -6.28125 C 2.988281 -6.332031 3.117188 -6.367188 3.140625 -6.390625 C 3.171875 -6.398438 3.195312 -6.554688 3.21875 -6.859375 C 3.21875 -7.035156 3.21875 -7.203125 3.21875 -7.359375 C 3.21875 -7.523438 3.21875 -7.660156 3.21875 -7.765625 C 3.21875 -7.867188 3.21875 -7.921875 3.21875 -7.921875 C 3.21875 -7.921875 3.078125 -7.863281 2.796875 -7.75 L 2.390625 -7.5625 L 2.109375 -7.09375 C 1.921875 -6.78125 1.820312 -6.625 1.8125 -6.625 C 1.800781 -6.601562 1.710938 -6.660156 1.546875 -6.796875 L 1.40625 -6.921875 L 1.5 -7.296875 C 1.71875 -8.160156 1.851562 -8.957031 1.90625 -9.6875 C 1.914062 -9.945312 1.910156 -10.113281 1.890625 -10.1875 C 1.867188 -10.257812 1.804688 -10.335938 1.703125 -10.421875 C 1.609375 -10.484375 1.5625 -10.523438 1.5625 -10.546875 C 1.582031 -10.585938 1.613281 -10.691406 1.65625 -10.859375 L 1.71875 -11.15625 L 1.859375 -11.234375 C 2.148438 -11.347656 2.460938 -11.46875 2.796875 -11.59375 Z M 2.796875 -11.59375 "/></g></g></g><g fill="#ffffff" fill-opacity="1"><g transform="translate(43.066438, 27.046464)"><g><path d="M 2.359375 -10.75 C 2.535156 -11.007812 2.632812 -11.140625 2.65625 -11.140625 C 2.675781 -11.140625 2.867188 -11.050781 3.234375 -10.875 C 3.773438 -10.625 4.207031 -10.351562 4.53125 -10.0625 C 4.613281 -9.988281 4.707031 -9.882812 4.8125 -9.75 C 4.914062 -9.625 4.96875 -9.546875 4.96875 -9.515625 C 4.96875 -9.492188 4.8125 -9.296875 4.5 -8.921875 C 4.1875 -8.554688 4.023438 -8.375 4.015625 -8.375 C 4.015625 -8.363281 4 -8.367188 3.96875 -8.390625 C 3.9375 -8.421875 3.894531 -8.460938 3.84375 -8.515625 C 3.789062 -8.578125 3.738281 -8.640625 3.6875 -8.703125 C 3.507812 -8.867188 3.398438 -8.96875 3.359375 -9 C 3.328125 -9.03125 3.296875 -9.03125 3.265625 -9 C 3.234375 -8.976562 3.101562 -8.859375 2.875 -8.640625 C 2.644531 -8.421875 2.425781 -8.207031 2.21875 -8 C 2.019531 -7.800781 1.925781 -7.695312 1.9375 -7.6875 C 1.957031 -7.6875 2.113281 -7.71875 2.40625 -7.78125 C 2.707031 -7.84375 3.050781 -7.921875 3.4375 -8.015625 C 4.070312 -8.148438 4.429688 -8.234375 4.515625 -8.265625 C 4.609375 -8.296875 4.710938 -8.359375 4.828125 -8.453125 L 4.9375 -8.546875 L 5.34375 -8.140625 L 5.734375 -7.78125 L 5.5625 -7.28125 C 5.46875 -6.96875 5.414062 -6.800781 5.40625 -6.78125 C 5.394531 -6.757812 5.34375 -6.757812 5.25 -6.78125 C 5.164062 -6.800781 5.117188 -6.796875 5.109375 -6.765625 C 5.003906 -6.660156 4.707031 -6.109375 4.21875 -5.109375 C 3.726562 -4.109375 3.492188 -3.597656 3.515625 -3.578125 C 3.523438 -3.578125 3.832031 -3.742188 4.4375 -4.078125 C 5.039062 -4.421875 5.34375 -4.585938 5.34375 -4.578125 C 5.394531 -4.515625 5.46875 -4.421875 5.5625 -4.296875 C 5.664062 -4.179688 5.71875 -4.117188 5.71875 -4.109375 C 5.71875 -4.097656 4.625 -2.894531 2.4375 -0.5 L 2.34375 -0.40625 L 1.65625 -0.921875 C 1.175781 -1.296875 0.9375 -1.484375 0.9375 -1.484375 C 0.925781 -1.503906 0.960938 -1.695312 1.046875 -2.0625 L 1.171875 -2.609375 L 1.3125 -2.71875 C 1.414062 -2.789062 1.492188 -2.859375 1.546875 -2.921875 C 1.703125 -3.171875 1.859375 -3.5 2.015625 -3.90625 C 2.148438 -4.257812 2.3125 -4.738281 2.5 -5.34375 C 2.6875 -5.957031 2.769531 -6.28125 2.75 -6.3125 C 2.707031 -6.351562 2.375 -6.234375 1.75 -5.953125 C 1.476562 -5.828125 1.335938 -5.769531 1.328125 -5.78125 C 1.304688 -5.8125 1.203125 -6.082031 1.015625 -6.59375 L 0.703125 -7.390625 L 0.859375 -7.5625 C 0.960938 -7.664062 1.023438 -7.722656 1.046875 -7.734375 C 1.078125 -7.753906 1.117188 -7.757812 1.171875 -7.75 C 1.179688 -7.738281 1.203125 -7.726562 1.234375 -7.71875 C 1.347656 -7.695312 1.429688 -7.707031 1.484375 -7.75 C 1.546875 -7.789062 1.703125 -7.972656 1.953125 -8.296875 C 2.035156 -8.398438 2.097656 -8.484375 2.140625 -8.546875 C 2.617188 -9.140625 2.859375 -9.4375 2.859375 -9.4375 C 2.878906 -9.457031 2.753906 -9.613281 2.484375 -9.90625 C 2.210938 -10.175781 2.078125 -10.316406 2.078125 -10.328125 C 2.078125 -10.347656 2.171875 -10.488281 2.359375 -10.75 Z M 10.703125 -11.4375 C 10.859375 -11.53125 10.945312 -11.578125 10.96875 -11.578125 C 11.050781 -11.585938 11.375 -11.40625 11.9375 -11.03125 C 12.257812 -10.8125 12.492188 -10.625 12.640625 -10.46875 C 12.796875 -10.320312 12.863281 -10.210938 12.84375 -10.140625 C 12.769531 -9.859375 12.457031 -8.671875 11.90625 -6.578125 C 11.726562 -5.953125 11.613281 -5.59375 11.5625 -5.5 C 11.519531 -5.40625 11.441406 -5.320312 11.328125 -5.25 L 11.234375 -5.203125 L 10.78125 -5.359375 C 10.550781 -5.429688 10.40625 -5.472656 10.34375 -5.484375 C 10.28125 -5.503906 10.164062 -5.515625 10 -5.515625 C 9.4375 -5.503906 8.804688 -5.425781 8.109375 -5.28125 L 7.875 -5.234375 L 7.859375 -5.078125 C 7.859375 -4.929688 7.847656 -4.640625 7.828125 -4.203125 C 7.785156 -3.347656 7.804688 -2.765625 7.890625 -2.453125 C 7.921875 -2.304688 8 -2.195312 8.125 -2.125 C 8.25 -2.050781 8.445312 -1.984375 8.71875 -1.921875 C 8.863281 -1.890625 9.125 -1.875 9.5 -1.875 C 9.882812 -1.875 10.179688 -1.894531 10.390625 -1.9375 C 10.941406 -2.019531 11.347656 -2.164062 11.609375 -2.375 C 11.878906 -2.59375 12.082031 -2.941406 12.21875 -3.421875 C 12.332031 -3.765625 12.421875 -4.242188 12.484375 -4.859375 L 12.515625 -5.203125 L 12.953125 -5.484375 C 13.253906 -5.679688 13.410156 -5.773438 13.421875 -5.765625 C 13.441406 -5.734375 13.460938 -4.515625 13.484375 -2.109375 C 13.492188 -1.640625 13.472656 -1.332031 13.421875 -1.1875 C 13.285156 -0.65625 12.914062 -0.3125 12.3125 -0.15625 C 11.769531 -0.0078125 10.753906 0.0625 9.265625 0.0625 C 7.953125 0.0625 7.066406 -0.0078125 6.609375 -0.15625 C 6.410156 -0.207031 6.265625 -0.28125 6.171875 -0.375 C 6.085938 -0.46875 6.03125 -0.601562 6 -0.78125 C 5.875 -1.320312 5.882812 -2.796875 6.03125 -5.203125 L 6.09375 -6.125 L 5.96875 -6.421875 L 5.84375 -6.703125 L 5.984375 -6.890625 C 6.054688 -7.035156 6.113281 -7.113281 6.15625 -7.125 C 6.175781 -7.125 6.367188 -7.097656 6.734375 -7.046875 L 7.265625 -6.9375 L 8.0625 -7.0625 C 8.289062 -7.101562 8.765625 -7.171875 9.484375 -7.265625 L 10.125 -7.359375 L 10.140625 -7.484375 C 10.148438 -7.535156 10.195312 -7.875 10.28125 -8.5 C 10.382812 -9.101562 10.429688 -9.40625 10.421875 -9.40625 C 10.421875 -9.414062 9.421875 -9.25 7.421875 -8.90625 C 6.703125 -8.769531 6.332031 -8.707031 6.3125 -8.71875 C 6.289062 -8.738281 6.175781 -9.019531 5.96875 -9.5625 L 5.640625 -10.359375 L 5.875 -10.59375 C 6.007812 -10.75 6.101562 -10.84375 6.15625 -10.875 C 6.175781 -10.894531 6.195312 -10.898438 6.21875 -10.890625 C 6.25 -10.890625 6.316406 -10.863281 6.421875 -10.8125 L 6.640625 -10.6875 L 7.609375 -10.828125 C 8.015625 -10.890625 8.65625 -10.992188 9.53125 -11.140625 L 10.484375 -11.296875 Z M 10.703125 -11.4375 "/></g></g></g><g fill="#ffffff" fill-opacity="1"><g transform="translate(57.014646, 27.046464)"><g><path d="M 3.109375 -11.484375 C 3.140625 -11.492188 3.375 -11.429688 3.8125 -11.296875 C 4.90625 -10.960938 5.46875 -10.726562 5.5 -10.59375 C 5.53125 -10.5 5.394531 -10.328125 5.09375 -10.078125 C 4.9375 -9.953125 4.753906 -9.816406 4.546875 -9.671875 C 4.347656 -9.523438 4.234375 -9.453125 4.203125 -9.453125 C 4.191406 -9.453125 4.109375 -9.519531 3.953125 -9.65625 C 3.804688 -9.8125 3.71875 -9.878906 3.6875 -9.859375 C 3.644531 -9.847656 3.476562 -9.734375 3.1875 -9.515625 C 2.90625 -9.296875 2.625 -9.078125 2.34375 -8.859375 C 2.070312 -8.648438 1.9375 -8.546875 1.9375 -8.546875 C 1.957031 -8.523438 2.71875 -8.695312 4.21875 -9.0625 L 5.046875 -9.265625 L 5.484375 -8.8125 C 5.773438 -8.53125 5.921875 -8.378906 5.921875 -8.359375 C 5.921875 -8.347656 5.675781 -8.023438 5.1875 -7.390625 C 4.6875 -6.765625 4.4375 -6.445312 4.4375 -6.4375 C 4.4375 -6.425781 4.523438 -6.378906 4.703125 -6.296875 C 5.453125 -6.015625 6.097656 -5.644531 6.640625 -5.1875 L 6.75 -5.09375 L 6.5 -4.796875 C 6.40625 -4.679688 6.21875 -4.46875 5.9375 -4.15625 L 5.625 -3.828125 L 5.390625 -3.875 C 5.253906 -3.90625 5.0625 -3.953125 4.8125 -4.015625 L 4.484375 -4.09375 L 4.46875 -4.203125 C 4.445312 -4.359375 4.472656 -4.445312 4.546875 -4.46875 L 4.625 -4.515625 L 4.484375 -4.71875 C 4.410156 -4.84375 4.363281 -4.910156 4.34375 -4.921875 C 4.320312 -4.921875 4.304688 -4.722656 4.296875 -4.328125 C 4.285156 -3.929688 4.273438 -3.445312 4.265625 -2.875 C 4.265625 -2.300781 4.265625 -1.796875 4.265625 -1.359375 C 4.265625 -0.941406 4.253906 -0.648438 4.234375 -0.484375 L 4.21875 -0.234375 L 3.953125 -0.0625 C 3.773438 0.0625 3.644531 0.125 3.5625 0.125 C 3.507812 0.125 3.34375 0.046875 3.0625 -0.109375 C 2.78125 -0.265625 2.597656 -0.382812 2.515625 -0.46875 C 2.429688 -0.539062 2.398438 -0.59375 2.421875 -0.625 C 2.492188 -0.726562 2.546875 -0.863281 2.578125 -1.03125 C 2.585938 -1.09375 2.597656 -1.46875 2.609375 -2.15625 C 2.617188 -2.851562 2.617188 -3.332031 2.609375 -3.59375 L 2.59375 -3.9375 L 2.171875 -3.40625 L 1.765625 -2.875 L 1.4375 -2.84375 C 1.238281 -2.8125 1.132812 -2.800781 1.125 -2.8125 C 1.125 -2.820312 1.03125 -3.082031 0.84375 -3.59375 L 0.59375 -4.40625 L 0.65625 -4.453125 C 0.769531 -4.546875 0.859375 -4.5625 0.921875 -4.5 C 0.984375 -4.457031 1.023438 -4.441406 1.046875 -4.453125 C 1.097656 -4.460938 1.707031 -5.132812 2.875 -6.46875 C 3.488281 -7.144531 3.796875 -7.503906 3.796875 -7.546875 C 3.796875 -7.566406 3.332031 -7.445312 2.40625 -7.1875 C 1.726562 -6.988281 1.382812 -6.890625 1.375 -6.890625 C 1.34375 -6.878906 1.3125 -6.910156 1.28125 -6.984375 C 1.269531 -7.023438 1.171875 -7.28125 0.984375 -7.75 C 0.816406 -8.1875 0.738281 -8.40625 0.75 -8.40625 C 0.925781 -8.519531 1.03125 -8.582031 1.0625 -8.59375 C 1.09375 -8.613281 1.128906 -8.609375 1.171875 -8.578125 C 1.234375 -8.546875 1.28125 -8.53125 1.3125 -8.53125 C 1.34375 -8.53125 1.65625 -8.835938 2.25 -9.453125 L 3.171875 -10.359375 L 2.796875 -10.703125 C 2.554688 -10.929688 2.4375 -11.050781 2.4375 -11.0625 C 2.445312 -11.082031 2.554688 -11.15625 2.765625 -11.28125 C 2.972656 -11.414062 3.085938 -11.484375 3.109375 -11.484375 Z M 9.25 -11.4375 C 10.039062 -11.53125 10.453125 -11.578125 10.484375 -11.578125 C 10.503906 -11.578125 10.632812 -11.441406 10.875 -11.171875 L 11.25 -10.75 L 11.109375 -10.484375 C 11.046875 -10.335938 11.003906 -10.234375 10.984375 -10.171875 C 10.960938 -10.117188 10.941406 -9.988281 10.921875 -9.78125 C 10.898438 -9.539062 10.875 -9.132812 10.84375 -8.5625 C 10.8125 -8 10.800781 -7.710938 10.8125 -7.703125 C 10.832031 -7.671875 11.054688 -7.675781 11.484375 -7.71875 C 11.921875 -7.757812 12.15625 -7.785156 12.1875 -7.796875 C 12.207031 -7.804688 12.269531 -7.863281 12.375 -7.96875 L 12.53125 -8.09375 L 12.59375 -8.03125 C 13.050781 -7.539062 13.28125 -7.269531 13.28125 -7.21875 C 13.28125 -7.195312 13.171875 -6.867188 12.953125 -6.234375 C 12.734375 -5.609375 12.617188 -5.285156 12.609375 -5.265625 C 12.597656 -5.242188 12.550781 -5.242188 12.46875 -5.265625 C 12.144531 -5.328125 11.726562 -5.375 11.21875 -5.40625 L 10.8125 -5.421875 L 10.828125 -3.859375 C 10.847656 -2.804688 10.863281 -2.273438 10.875 -2.265625 C 10.882812 -2.253906 11.132812 -2.257812 11.625 -2.28125 C 11.71875 -2.289062 11.8125 -2.296875 11.90625 -2.296875 C 12.007812 -2.304688 12.097656 -2.3125 12.171875 -2.3125 C 12.242188 -2.3125 12.304688 -2.3125 12.359375 -2.3125 C 12.421875 -2.3125 12.457031 -2.3125 12.46875 -2.3125 C 12.539062 -2.3125 12.632812 -2.363281 12.75 -2.46875 C 12.863281 -2.5625 12.9375 -2.601562 12.96875 -2.59375 C 13.007812 -2.570312 13.140625 -2.476562 13.359375 -2.3125 C 13.472656 -2.21875 13.554688 -2.144531 13.609375 -2.09375 C 13.671875 -2.050781 13.703125 -2.023438 13.703125 -2.015625 C 13.703125 -2.003906 13.691406 -1.96875 13.671875 -1.90625 C 13.648438 -1.851562 13.617188 -1.769531 13.578125 -1.65625 C 13.546875 -1.550781 13.523438 -1.460938 13.515625 -1.390625 C 13.304688 -0.628906 13.171875 -0.222656 13.109375 -0.171875 C 13.085938 -0.148438 13.03125 -0.148438 12.9375 -0.171875 C 12.84375 -0.179688 12.625 -0.207031 12.28125 -0.25 C 11.914062 -0.289062 11.296875 -0.3125 10.421875 -0.3125 C 9.535156 -0.3125 8.925781 -0.296875 8.59375 -0.265625 C 7.820312 -0.191406 7.210938 -0.0976562 6.765625 0.015625 C 6.535156 0.078125 6.421875 0.101562 6.421875 0.09375 C 6.410156 0.0820312 6.296875 -0.226562 6.078125 -0.84375 C 5.859375 -1.457031 5.75 -1.78125 5.75 -1.8125 C 5.75 -1.832031 5.785156 -1.898438 5.859375 -2.015625 L 5.953125 -2.203125 L 6.171875 -2.109375 L 6.375 -2.015625 L 6.78125 -2.015625 C 6.894531 -2.023438 7.25 -2.050781 7.84375 -2.09375 C 8.144531 -2.101562 8.328125 -2.113281 8.390625 -2.125 C 8.453125 -2.132812 8.488281 -2.15625 8.5 -2.1875 C 8.539062 -2.375 8.570312 -3.054688 8.59375 -4.234375 L 8.609375 -5.28125 L 8.4375 -5.265625 C 7.957031 -5.203125 7.523438 -5.101562 7.140625 -4.96875 C 6.953125 -4.90625 6.851562 -4.878906 6.84375 -4.890625 C 6.832031 -4.910156 6.78125 -5.132812 6.6875 -5.5625 C 6.59375 -5.914062 6.5 -6.300781 6.40625 -6.71875 L 6.265625 -7.21875 L 6.390625 -7.4375 L 6.515625 -7.640625 L 6.6875 -7.53125 L 6.84375 -7.4375 L 7.703125 -7.484375 C 8.253906 -7.503906 8.539062 -7.519531 8.5625 -7.53125 C 8.59375 -7.539062 8.601562 -7.691406 8.59375 -7.984375 C 8.53125 -9.472656 8.457031 -10.328125 8.375 -10.546875 C 8.351562 -10.640625 8.285156 -10.78125 8.171875 -10.96875 C 8.078125 -11.164062 8.03125 -11.269531 8.03125 -11.28125 C 8.039062 -11.289062 8.445312 -11.34375 9.25 -11.4375 Z M 9.25 -11.4375 "/></g></g></g><g fill="#ffffff" fill-opacity="1"><g transform="translate(70.962855, 27.046464)"><g><path d="M 11.359375 -11.78125 C 11.554688 -11.882812 11.664062 -11.929688 11.6875 -11.921875 C 12.0625 -11.710938 12.257812 -11.570312 12.28125 -11.5 C 12.289062 -11.46875 12.335938 -11.191406 12.421875 -10.671875 C 12.460938 -10.328125 12.503906 -10.003906 12.546875 -9.703125 C 12.566406 -9.546875 12.570312 -9.457031 12.5625 -9.4375 C 12.550781 -9.425781 12.488281 -9.445312 12.375 -9.5 C 12.1875 -9.582031 11.914062 -9.648438 11.5625 -9.703125 C 9.96875 -9.890625 7.867188 -9.800781 5.265625 -9.4375 C 4.378906 -9.320312 3.910156 -9.242188 3.859375 -9.203125 C 3.859375 -9.191406 3.867188 -9.175781 3.890625 -9.15625 C 3.910156 -9.144531 3.9375 -9.128906 3.96875 -9.109375 C 4.039062 -9.066406 4.078125 -9.035156 4.078125 -9.015625 C 4.078125 -8.984375 4.039062 -8.882812 3.96875 -8.71875 C 3.882812 -8.570312 3.820312 -8.4375 3.78125 -8.3125 C 3.71875 -8.101562 3.660156 -7.5625 3.609375 -6.6875 C 3.578125 -6.15625 3.566406 -5.148438 3.578125 -3.671875 C 3.585938 -2.203125 3.609375 -1.457031 3.640625 -1.4375 C 3.671875 -1.425781 4.8125 -1.46875 7.0625 -1.5625 C 7.882812 -1.601562 8.535156 -1.632812 9.015625 -1.65625 C 9.460938 -1.6875 9.6875 -1.707031 9.6875 -1.71875 C 9.695312 -1.71875 9.648438 -1.734375 9.546875 -1.765625 C 9.441406 -1.796875 9.285156 -1.84375 9.078125 -1.90625 C 8.878906 -1.976562 8.65625 -2.050781 8.40625 -2.125 C 8.125 -2.207031 7.984375 -2.253906 7.984375 -2.265625 C 7.960938 -2.296875 7.976562 -2.390625 8.03125 -2.546875 C 8.039062 -2.546875 8.195312 -2.554688 8.5 -2.578125 C 8.8125 -2.609375 8.96875 -2.632812 8.96875 -2.65625 C 8.96875 -2.6875 8.789062 -2.929688 8.4375 -3.390625 C 8.082031 -3.847656 7.882812 -4.082031 7.84375 -4.09375 C 7.820312 -4.09375 7.726562 -4 7.5625 -3.8125 C 7.03125 -3.164062 6.53125 -2.597656 6.0625 -2.109375 L 5.765625 -1.8125 L 5.375 -1.75 C 5.09375 -1.71875 4.914062 -1.695312 4.84375 -1.6875 L 4.6875 -1.65625 L 4.34375 -2.453125 C 4.113281 -2.984375 4 -3.257812 4 -3.28125 C 4 -3.300781 4.035156 -3.363281 4.109375 -3.46875 L 4.234375 -3.609375 L 4.3125 -3.546875 C 4.53125 -3.378906 4.675781 -3.296875 4.75 -3.296875 C 4.84375 -3.296875 5.066406 -3.476562 5.421875 -3.84375 C 5.773438 -4.207031 6.117188 -4.613281 6.453125 -5.0625 C 6.597656 -5.238281 6.671875 -5.332031 6.671875 -5.34375 C 6.671875 -5.375 6.117188 -5.953125 5.015625 -7.078125 L 4.078125 -8 L 4.234375 -8.265625 C 4.335938 -8.441406 4.394531 -8.539062 4.40625 -8.5625 C 4.425781 -8.582031 4.65625 -8.460938 5.09375 -8.203125 C 6.082031 -7.628906 6.753906 -7.222656 7.109375 -6.984375 C 7.378906 -6.816406 7.523438 -6.734375 7.546875 -6.734375 C 7.585938 -6.734375 7.75 -7.015625 8.03125 -7.578125 C 8.21875 -7.960938 8.3125 -8.25 8.3125 -8.4375 C 8.3125 -8.539062 8.195312 -8.671875 7.96875 -8.828125 C 7.832031 -8.921875 7.773438 -8.992188 7.796875 -9.046875 C 7.816406 -9.078125 7.859375 -9.164062 7.921875 -9.3125 L 8 -9.515625 L 8.125 -9.5 C 8.34375 -9.488281 9.054688 -9.382812 10.265625 -9.1875 L 10.578125 -9.125 L 10.6875 -8.921875 C 10.914062 -8.441406 11.03125 -8.160156 11.03125 -8.078125 C 11.03125 -7.992188 10.609375 -7.441406 9.765625 -6.421875 C 9.347656 -5.910156 9.140625 -5.648438 9.140625 -5.640625 C 9.140625 -5.617188 9.1875 -5.570312 9.28125 -5.5 C 9.644531 -5.238281 10 -4.929688 10.34375 -4.578125 C 10.6875 -4.234375 10.957031 -3.910156 11.15625 -3.609375 C 11.25 -3.484375 11.335938 -3.335938 11.421875 -3.171875 C 11.503906 -3.003906 11.539062 -2.910156 11.53125 -2.890625 C 11.53125 -2.890625 11.492188 -2.863281 11.421875 -2.8125 C 11.359375 -2.769531 11.257812 -2.695312 11.125 -2.59375 C 10.988281 -2.5 10.859375 -2.414062 10.734375 -2.34375 C 10.222656 -1.957031 9.957031 -1.757812 9.9375 -1.75 C 9.914062 -1.726562 9.921875 -1.710938 9.953125 -1.703125 C 9.984375 -1.703125 10.050781 -1.707031 10.15625 -1.71875 C 10.21875 -1.71875 10.335938 -1.722656 10.515625 -1.734375 C 10.703125 -1.742188 10.816406 -1.75 10.859375 -1.75 L 11.296875 -1.75 L 11.65625 -1.953125 C 11.914062 -2.066406 12.050781 -2.125 12.0625 -2.125 C 12.070312 -2.125 12.523438 -1.597656 13.421875 -0.546875 C 13.523438 -0.421875 13.566406 -0.335938 13.546875 -0.296875 C 13.484375 -0.234375 13.375 -0.109375 13.21875 0.078125 C 13.175781 0.117188 13.132812 0.164062 13.09375 0.21875 C 13.050781 0.28125 13.015625 0.328125 12.984375 0.359375 C 12.953125 0.390625 12.9375 0.40625 12.9375 0.40625 C 12.925781 0.414062 12.75 0.398438 12.40625 0.359375 C 11.082031 0.140625 9.785156 0.0234375 8.515625 0.015625 C 6.398438 -0.015625 4.695312 0.15625 3.40625 0.53125 C 3.039062 0.632812 2.804688 0.675781 2.703125 0.65625 C 2.398438 0.582031 1.921875 0.222656 1.265625 -0.421875 L 0.953125 -0.71875 L 1.015625 -0.9375 C 1.160156 -1.570312 1.25 -2.128906 1.28125 -2.609375 C 1.394531 -3.648438 1.441406 -4.757812 1.421875 -5.9375 C 1.410156 -7.125 1.347656 -7.953125 1.234375 -8.421875 C 1.179688 -8.609375 1.09375 -8.878906 0.96875 -9.234375 L 0.796875 -9.8125 L 1.21875 -10.046875 L 1.625 -10.296875 L 1.84375 -10.21875 C 1.976562 -10.15625 2.050781 -10.128906 2.0625 -10.140625 C 2.070312 -10.148438 2.046875 -10.269531 1.984375 -10.5 C 1.941406 -10.6875 1.921875 -10.796875 1.921875 -10.828125 C 1.929688 -10.859375 1.992188 -10.941406 2.109375 -11.078125 L 2.203125 -11.203125 L 2.5 -11.125 L 2.78125 -11.03125 L 3.546875 -11.078125 C 3.679688 -11.085938 3.890625 -11.101562 4.171875 -11.125 C 4.460938 -11.15625 4.640625 -11.171875 4.703125 -11.171875 C 4.765625 -11.171875 4.898438 -11.175781 5.109375 -11.1875 C 5.316406 -11.207031 5.582031 -11.226562 5.90625 -11.25 C 6.238281 -11.269531 6.523438 -11.289062 6.765625 -11.3125 C 7.035156 -11.332031 7.320312 -11.351562 7.625 -11.375 C 7.925781 -11.394531 8.1875 -11.414062 8.40625 -11.4375 C 8.632812 -11.457031 8.765625 -11.46875 8.796875 -11.46875 C 9.109375 -11.476562 9.546875 -11.503906 10.109375 -11.546875 L 11.078125 -11.609375 Z M 11.359375 -11.78125 "/></g></g></g></svg>