<svg xmlns="http://www.w3.org/2000/svg" version="1.1" baseProfile="full" 
width="550" height="300" style="background-color: #ededed;"
>
  <path d="m321.59128,188.01614l0,-8.46677l7.35873,0l0,12.14008c0,2.03543 -1.64999,3.67337 -3.67334,3.67337l-100.55334,0c-2.0354,0 -3.67334,-1.65002 -3.67334,-3.67337l0,-83.37894c0,-2.03537 1.64999,-3.67334 3.67334,-3.67334l100.55334,0c2.03537,0 3.67334,1.65002 3.67334,3.67334l0,51.42688l-7.35873,0l0,-47.75351l-93.19461,0l0,76.03226l93.19461,0zm-68.66147,-39.23856c-6.76859,0 -12.26056,-5.49197 -12.26056,-12.26056s5.49197,-12.26056 12.26056,-12.26056s12.26056,5.49197 12.26056,12.26056s-5.49197,12.26056 -12.26056,12.26056zm0,-7.35876c2.70984,0 4.90182,-2.19196 4.90182,-4.90179s-2.19199,-4.90179 -4.90182,-4.90179s-4.90179,2.19196 -4.90179,4.90179s2.19196,4.90179 4.90179,4.90179zm-15.0065,26.56854l5.27515,-5.11859c8.84012,9.11713 17.93317,9.80362 26.38788,2.55328c1.03577,-0.89127 1.3248,-1.14417 3.93829,-3.4325c8.20181,-7.2142 12.40509,-10.38171 17.80069,-12.69412c7.52734,-3.22772 14.88608,-2.84232 22.23276,1.8186l-3.95035,6.2146c-9.358,-5.93759 -16.22293,-2.98685 -31.22946,10.20105c-2.63757,2.32446 -2.92664,2.57739 -3.9985,3.49271c-11.47772,9.82767 -24.97876,8.80399 -36.45645,-3.03503l0,0z" fill="#e0e0e0" stroke="none" />
</svg>