<svg xmlns="http://www.w3.org/2000/svg" version="1.1" baseProfile="full" 
width="18" height="18" viewBox="0 0 256 256"
>
  <path d="m157.29399,50.453c-7.43816,-8.03062 -17.82714,-12.453 -29.29399,-12.453c-11.52801,0 -21.95138,4.39562 -29.35515,12.37656c-7.48403,8.06885 -11.1305,19.03498 -10.2743,30.87642c1.6971,23.36181 19.47454,42.36622 39.62945,42.36622s37.90179,-19.00059 39.62564,-42.35857c0.86766,-11.73442 -2.80174,-22.67761 -10.33163,-30.80762l-0.00001,0l-0.00001,-0.00001zm37.97822,158.78539l-134.54444,0a11.84908,11.84908 0 0 1 -9.24993,-4.2542c-2.48449,-2.96992 -3.48593,-7.02536 -2.7444,-11.12668c3.22601,-17.89595 13.2939,-32.92899 29.11817,-43.48232c14.05837,-9.36842 31.86639,-14.52468 50.14838,-14.52468s36.09002,5.16009 50.14838,14.52468c15.82426,10.54951 25.89216,25.58256 29.11817,43.4785c0.74152,4.10131 -0.25992,8.15676 -2.7444,11.12668a11.84908,11.84908 0 0 1 -9.24993,4.25803l-0.00001,-0.00001l0.00001,0z" stroke="none" fill="#7d90a9" />
</svg>